<svg xmlns="http://www.w3.org/2000/svg">
	<defs>
		<symbol id="icon-heart" viewBox="0 0 14 13"><path d="M7.536 1.167L7 1.731l-.536-.564a3.656 3.656 0 00-5.355 0C-.37 2.723-.37 5.246 1.11 6.803l.536.563L7 13l5.355-5.635.536-.563c1.479-1.556 1.479-4.079 0-5.635a3.655 3.655 0 00-5.355 0z"></path></symbol>
		<symbol id="icon-bullet-list" viewBox="0 0 13 10"><path d="M11.379 7.547c.894 0 1.621.55 1.621 1.227C13 9.45 12.273 10 11.379 10H5.705c-.894 0-1.62-.55-1.62-1.226 0-.677.726-1.227 1.62-1.227h5.674zm0-7.547C12.273 0 13 .55 13 1.226c0 .677-.727 1.227-1.621 1.227H5.705c-.894 0-1.62-.55-1.62-1.227C4.084.55 4.81 0 5.704 0h5.674zm0 3.774C12.273 3.774 13 4.324 13 5c0 .676-.727 1.226-1.621 1.226H5.705c-.894 0-1.62-.55-1.62-1.226 0-.676.726-1.226 1.62-1.226h5.674zM1.289 10C.578 10 0 9.45 0 8.774c0-.678.577-1.227 1.29-1.227.712 0 1.29.55 1.29 1.227S2.002 10 1.29 10zm0-3.774C.578 6.226 0 5.677 0 5c0-.677.577-1.226 1.29-1.226.712 0 1.29.549 1.29 1.226 0 .677-.578 1.226-1.29 1.226zm0-3.773C.578 2.453 0 1.903 0 1.226S.577 0 1.29 0c.712 0 1.29.55 1.29 1.226 0 .678-.578 1.227-1.29 1.227z"></path></symbol>
		<symbol id="icon-close" viewBox="0 0 18 18"><path d="M11.527 9c0 .122-.009.232-.026.332.581.763 2.562 2.639 5.942 5.626.378.355.557.778.557 1.242 0 .886-.78 1.8-1.921 1.8-.51 0-.955-.174-1.326-.522L9 12.088l-5.753 5.39c-.37.348-.816.522-1.326.522C.78 18 0 17.086 0 16.2c0-.464.179-.887.557-1.242 3.38-2.987 5.36-4.863 5.942-5.626a1.96 1.96 0 01.003-.66c-.578-.761-2.56-2.638-5.945-5.63C.18 2.687 0 2.264 0 1.8 0 .914.781 0 1.921 0c.51 0 .955.174 1.326.522L9 5.912l5.753-5.39C15.123.174 15.57 0 16.08 0 17.219 0 18 .914 18 1.8c0 .464-.179.887-.557 1.242-3.386 2.992-5.367 4.869-5.945 5.63.019.1.03.21.03.328z"></path></symbol>
	</defs>
</svg>